/* XPM */
static char *download_11671369969[] = {
/* columns rows colors chars-per-pixel */
"50 50 159 2 ",
"   c #DDBF67",
".  c #D6B86F",
"X  c #DCBC6C",
"o  c #CEB370",
"O  c #DEBB72",
"+  c #FBBE6E",
"@  c #EDBD71",
"#  c #F6BE74",
"$  c #F8BD71",
"%  c #F2CB5D",
"&  c #FDD25F",
"*  c #DEC173",
"=  c #DECC77",
"-  c #DBC07B",
";  c #DECF7A",
":  c #E0C260",
">  c #EFCC66",
",  c #E4C46C",
"<  c #E5CD6B",
"1  c #ECCB6C",
"2  c #F1CD65",
"3  c #F4CD6C",
"4  c #FACF6B",
"5  c #EED062",
"6  c #E5D36F",
"7  c #EAD16A",
"8  c #EFD86E",
"9  c #FCD361",
"0  c #F6D169",
"q  c #FDD56C",
"w  c #FCD86B",
"e  c #E5C373",
"r  c #ECC475",
"t  c #E6CC75",
"y  c #ECCD74",
"u  c #E4C37A",
"i  c #EBC57D",
"p  c #E2CC7B",
"a  c #EDCB7C",
"s  c #FAC171",
"d  c #F4CE74",
"f  c #FACD72",
"g  c #F3C27B",
"h  c #FCC47A",
"j  c #F2CD7C",
"k  c #FFCE7C",
"l  c #EDD376",
"z  c #E6D875",
"x  c #E4D17E",
"c  c #EDD37B",
"v  c #ECDE7D",
"b  c #F2D376",
"n  c #FDD475",
"m  c #F4D975",
"M  c #FFDB73",
"N  c #F4D37C",
"B  c #FAD47B",
"V  c #F6DA7D",
"C  c #FBDA7D",
"Z  c #EEE07D",
"A  c #FBE17D",
"S  c #E6BF86",
"D  c #DEC582",
"F  c #E7C784",
"G  c #E9C682",
"H  c #E6CA82",
"J  c #ECCC83",
"K  c #E5C68D",
"L  c #EAC388",
"P  c #E7CB8C",
"I  c #EDCC8A",
"U  c #F3C383",
"Y  c #FAC380",
"T  c #F2CC84",
"R  c #FBCB84",
"E  c #F3CD8B",
"W  c #FACE8C",
"Q  c #E7D686",
"!  c #EDD384",
"~  c #ECDA83",
"^  c #EED28C",
"/  c #ECDA8B",
"(  c #F4D384",
")  c #FAD584",
"_  c #F5DA84",
"`  c #FBDB85",
"'  c #F4D48B",
"]  c #FAD58B",
"[  c #F4DA8C",
"{  c #FCDB8C",
"}  c #E2C697",
"|  c #E5CA93",
" . c #EACC93",
".. c #EECE9B",
"X. c #F4CE92",
"o. c #FBCC94",
"O. c #F5CD9A",
"+. c #EED293",
"@. c #EEDA91",
"#. c #EED49B",
"$. c #F3D493",
"%. c #FAD593",
"&. c #F5DA94",
"*. c #FCDC93",
"=. c #F4D49C",
"-. c #FBD59B",
";. c #F5DA9A",
":. c #FCDD9B",
">. c #F4E085",
",. c #FDE285",
"<. c #FDEA84",
"1. c #F5E18B",
"2. c #FEE28C",
"3. c #FFEB8D",
"4. c #FFF48F",
"5. c #F5E292",
"6. c #FEE394",
"7. c #FEEA95",
"8. c #F5E19C",
"9. c #FEE39B",
"0. c #FFEB9B",
"q. c #FFF395",
"w. c #FFF29E",
"e. c #F5CCA0",
"r. c #F5D4A1",
"t. c #FBD6A4",
"y. c #F5DCA2",
"u. c #FDDCA2",
"i. c #F1D4A8",
"p. c #FBD7A9",
"a. c #F7DBAD",
"s. c #FEDCAB",
"d. c #FFDEB4",
"f. c #FFDEB9",
"g. c #F7E3A3",
"h. c #FEE4A3",
"j. c #FFEBA4",
"k. c #FFE4AB",
"l. c #FFEBAC",
"z. c #FEF2A3",
"x. c #FFF8A3",
"c. c #FFF2AE",
"v. c #FFF9AE",
"b. c #F5E0B3",
"n. c #FFE4B3",
"m. c #FFEBB3",
"M. c #FFE5BC",
"N. c #FFECBB",
"B. c #FFF2B4",
"V. c #FFF3BA",
"C. c #FEE7C5",
"Z. c #FFEDC3",
"A. c #FFEFC9",
"S. c #FFF3C4",
"D. c #FFF8C0",
"F. c #FFF4CC",
"G. c #FFEBD3",
"H. c #FFF0D1",
"J. c #FFF6DA",
/* pixels */
"G.H.F.D.j./ x Q ! H ^ 8.k.:.$.$. .^ @.&.9.7.7.{ { 2.7.7.9.h.9.' *.W T W { *.6.7.j ( *.6.' ( [ t J a ",
"J.C.b.k.g.@.~ ~ [ ( &.j.j.-.I E ;.;.;.*.6.*.{ ` N N ( ( ( T J ' T g T ] { { ] ( ( { 9.6.[ *.8.( 1.*.",
"A.a...#.:.8.5.7.6.{ { *.*.E E %.g.9.6.&.[ ( ) _ ) j r a p O u J i i T ] *.{ ) ( { *.9.9.*.7.j.0.0.9.",
" . .K K F E ] 6.2.` ` B j k ] 0.B.B.B.j.6.{ 7.7.6.` ( a J u F J ' ) ] *.*.{ ] %.{ *.:.7.8.9.j.j./ Q ",
"J ] %.L L E -.*.) n 4 3 s f ) 9.z.B.z.j.9.6.9.0.7.2.{ _ { *.*.' { { *.7.7.6.*.6.*.9.9.9.9.9.h.j.; ; ",
"7.0.:.o.O.s.k.*.B n q 9 9 f B ] &.;.;.&.%.[ { { { { ( ] 9.l.j.&._ [ 6.7.9.*.{ *.9.9.9.k.j.8.6.j.@.@.",
"C ` %.-.t.d.s.:.) n w w q n k T $.;.;.&.*.*.{ { ) j j ' :.9.9.&.] [ 6.7.6.&.&.8.9.j.j.j.j.;.^ ;.r.i.",
": , T t.f.d.s.k.) C w w M ` ) ' &.#.;.&.9.7.6.` ` ( ( ] *.&.$.' 7.5.{ 6.&.[ &.h.:.h.h.9.h.^ D  .O.O.",
"< ,.l.m.f.f.M.m.' V m m m b J G P ;.h.9.9.j.z.7.0.7.*.{ ' %.&.&.0.6.6.5.*.;.&.+.h.:.;.=.$.+.^ %.E W ",
">.2.j.k.f.M.M.n.^ 2.<.m c _ :.;.;.k.j.h.9.6.{ ] { ] { *.*.:.h.h.7.[ ! @.0.l.h.+.:.h.u.;.;.&.^ i g h ",
"7.0.h.y.a.n.n.l.5.7.>.c x / ;.g.l.k.j.k.9.*.{ ' ) ) { 9.9.h.j.j.7.&.^ ' h.j.k.=.#.u.:.$.$.&.J O h $ ",
"6.0.j.y.#.y.k.l.z.&.! 1.8.8.g.m.k.g.;.:.9.*.{ ) ] { *.9.0.h.u.u.*.8.;.^ $... .-.=.:.;.X.' ] T e R R ",
";.h.h.6.8.9.j.0.0.[ / j.B.l.m.D.B.V.l.;.*.9.*.( { { 9.9.h.h.:.;.h.z.m.k.u.=.r.s.n.k.u.:.*.] ) j R R ",
"k.9.:.6.0.x.q.1.! 5.j.j.j.k.n.m.m.V.m.g.&.9.*.' ) ] *.9.9.9.:.-.u.l.l.m.D.N.s.n.m.n.k.:.*.T g a ' [ ",
"h.:.] _ 3.3.<.l t 6.l.h...+.....#.;.:.;.$.' ( J ( ] *.*.:.:.;.%.I ;.$.O.n.d.t.p.s.k.u.-.T j j T M.C.",
"] { ) b m V b t ! &.9.u.=.K |  .| #.:.k.:.] ' ( ) ] ] { *.%.[ $.+.r.| K p.p.t.d.-.u.:.T r N 2.7.D.G.",
"q q 3 0 C 7.9.;.#.y.k.m.y.+.| =.k.m.B.m.9.] %.6.( ( ] ( N ( ( J ;.m.s...t.n.d.t.k.h.' a _ V V 1.m.Z.",
"9 & w C 2.w.l.l.B.y.| | #.;.;.&.:.u.:.9.9.9.*.` ( 2.2.( ) 2.7.*.g.n.s.=.s.n.s.-.-.-.%.{ 2.3.<.7.l.m.",
"% % 0 C { 9.j.k.k.y.#.#.#.$.^ &.&.&.&.&.6.*.] ( j { { J T *.j.h.l.k.=.t.n.k.-.E E ] *.7.2.<.<.>.&.8.",
"3 2 d C ( ( ^ =. .y.k.l.:.^ ^ { T { 6.6.{ ( ! ! J ' T G E :.k.k.k.r.$.u.k.k.-.] %.] { 2.c l c t c c ",
"C C B _ ( I ^ =.#. .$.9.j.9.6.7.J [ 7.0.2._ ( ' *.%.' -.u.k.s.s.r.+.$.9.9.9.6.*.] _ 2.` c c _ l m 8 ",
"` _ ( ( &.&.:.:.+.@.^ :.9.7.2.{ a _ 6.7.7.6.{ { 9.*.-.u.k.s.t.t.$.+.;.:.*.*.7.2.2.,.2.2.,.[ 2.>.A A ",
"' ! ! ' &.9.9.;.I ' *.9.6.) N N ( ' [ 6.6.*.*.*.*.:.u.j.u.u.-.-.$.$.6.&.( { 7.<.<.2.<.{ 7.6.{ 6.6.6.",
"^ ^ ^ @.:.j.:.$.^ ! ( ] ) N d N [ *.*.*.] [ { 6.*.9.l.j.:.-.-.-.$.*.9.] a 2.7.` ` ` N b { 7.6.9.*.6.",
"@.@.;.&.h.j.&.F J ] ] ) C ) B a j.j.:.&.I i J J j.9.6.*.*.*.%.] 9.9.[ J c ] >.V >.c c ( _ ] { ] :.:.",
"@.#.g.8.:.&.^ u ' { { { { 2.2.6.k.N.V.k.:.&.*.9.7.7.2.] ) T T ( ' ' ] *.2.] ( c ( ( _ ` ! a J { 9.9.",
"8.g.h.$.I J ' ' ] { { { 2.0.0.0.m.n.k.k.u.9.*.{ ] ` { ) j d N ) ] %.6.h.9.&.J ^ ! [ 7.9.] ! ] 7.` ` ",
"g.l.9.@.J J *.6.{ 2.{ ] { 6.9.0.u.u.;.$.%.%.( ! ( ( N N N j ) { 9.9.9.:.&.@.$.;.j.9.9.0.9.2.{ 7.b y ",
"8.j.j.9.&.{ { { ) { ] ' { *.9.9.:.9.9.%.J u N _ ( N c N ) { *.6.9.9.:.%...=.k.n.V.l.k.9.7.{ ) N { { ",
"j.j.9.*.2.*.{ N ) ) { { &.h.j.j.9.0.0.{ a a ( 2._ ( N ( { *.6.*.*.*.:.%.r.n.S.S.Z.m.k.h.*.( N ` ( J ",
"j.h.&./ ( ) ` ) ( ` *.*.:.h.j.8.7.2._ V C V _ N { ` ] ] ] %.-.*.-.*.%.t.s.N.A.F.f.a.u.&.T a _ 2.X . ",
"~ ] [ ( ( ` ] ) ` { 6.*.:.:.;.$.( _ >._ _ N _ ` 6.*.*.%.T I X.W ] T I $.t.p.a.d.p.=.K F u e d ` ! J ",
"c V >.{ [ ( ' ] 6.{ 6.9.:.;.-.u.@.@.$.' ^ ' &.*.%.*.:.*.' I F p N j ) T E O.o.:.*.( X   ) ) ' :.*.5.",
"7 A <.` ~ ] 7.6.7.{ [ %.*.&.=.r.k.g.h.u.:.&.%.%.%.%.*.-.%.$.^ J B N ) ] %.:.:.j.6.) 1 b 6.9.:.h.9.8.",
"A 4.q.2.~ ] 6.6.*._ [ 7.j.l.m.m.B.m.k.:.;.:.u.h.:.*.' E %.:.9.9.` b B ] W E J ( y b C ,.2.{ *.l.z.z.",
"<.q.q.1./ &.5.5.[ / 1.w.v.c.l.k.m.l.j.:.;.:.h.j.j.9.-.%.%.:.h.9.N , r ' *.&.@ e , m A A C N ( 6.z.z.",
"6 z ~ 1.5.z.j.w.z.7.7.x.v.z.g.#.y.k.l.l.u.&.*.:.-.*.9.9.:.%.I J , , j 6.j.j.*.7.2.,.A A A V N t 6 6 ",
"Z Z >.7.z.z.x.w.5./ >.5.0.g.g.g.h.k.h.9.&.%.T ( i T ] %.&.^ I F O t { 9.%.&.*.x.2.,.,.C V _ ` a > % ",
"q.q.q.7.0.0.8.@.; = = Q 1.8.g.l.B.j.;.+.' ' ( T a i a i G T $.&.! ^ j.;.^ F J *.( ` 7.,.c _ 2.V 2 % ",
">.7.7./ ^ &.5.&.7.7.7.w.j.j.l.B.m.:.$.X.*.*.] j ) T a T T E $.I =.:.l.j.h.9.:.:.0.9.0.7.] [ ` y > % ",
"` *.*.' I ' %.[ ! { 7.2.{ &.:.h.k.:.;.&.' ] T j ( d { 6.J ' j.:.s.k.m.n.u.u.$.;.k.:.%.&.*.9.{ T N b ",
"r j T %.-.-.:.9.J a T ) ] ] E E $.y.:.&.T i j j j j *.9.] %.k.k.n.N.S.k.=.u.=.u.=.:.=.X.-.h.6.J { { ",
"( ) %.:.:.-.L i T j j j j U E L I $.;.[ ' a ) ` B ) { 6.%.' *.k.N.i.y.m.V.k.$.u.O.t.t.O.u.l.h.T *.{ ",
"{ %.:.j.k.u.%.T ] { 6.2.{ ] *.h.u.;.I F ( { 2.2.C C j ) ] T E k.n.}  .k.B.h. .-.O.p.s.s.n.m.:.U R ) ",
"9.:.:.h.l.m.B.l.' 6.0.x.z.j.j.l.m.g.I J ) { ` B f d r j *.E T u.k.s.k.+.J [ %.:.-.t.d.n.m.k.] # k k ",
"j.j.:.$.=.u.j.u.*.6.2.6.6.6.6.6.u.:.%.' ( N d d d k B ` 6.] L %.k.k.h.' ~ ] ] 9.-.t.p.n.s.W i @ k k ",
"H ;.;.P K +.+.^ 9.2._ c ~ ! ' @.$.=.*.%.) j b n n ,.{ 2.] E E -.j.$.[ { 2.` N { :.t.s.p.O.U @ g R ] ",
"o I :.$.+.;.+.- H _ 7.0.7.6.6.9.:.9.9.*.) ( B C B { 2.{ T T *.j.:.:.7._ y l j ( 9.k.s.-.U # h ) ] ] ",
"+.$.[ %.9.j.:.E ` ` ` ] { { ` ` 6.[ ^ ` 6.` ` 2.,.` ) ` ] ] ] { %.] ) ` 2.` b 7.9.h.W Y h # $ s R %.",
"-.;.' ( *.h.u.%.) ` ) ` %.] ` ` 6.' ( ` 2.` 2.2.2._ _ ` ] ) ] { { ) ) ` 2.` N 6.9.9.Y S h $ $ $ Y -."
};
