/* XPM */
static char *ef9630f066c14685c1390716cd6f9718VLhta6WE6FQSDcuZ[] = {
/* columns rows colors chars-per-pixel */
"50 50 209 2 ",
"   c None",
".  c #370D0C",
"X  c #371010",
"o  c #4C0E0D",
"O  c #540E0D",
"+  c #5D0D0D",
"@  c #521413",
"#  c #6A0D0F",
"$  c #680F11",
"%  c #730D12",
"&  c #7B0E11",
"*  c #780114",
"=  c #6C1215",
"-  c #671618",
";  c #751114",
":  c #7C1215",
">  c #79171A",
",  c #760D0E",
"<  c #54381E",
"1  c #7A2B17",
"2  c #6E3418",
"3  c #7B3B09",
"4  c #7B1621",
"5  c #7C2425",
"6  c #004C0C",
"7  c #00631F",
"8  c #086121",
"9  c #3B7D2F",
"0  c #7C4900",
"q  c #7E530B",
"w  c #5F4E39",
"e  c #4A7931",
"r  c #58794B",
"t  c #7E6B4A",
"y  c #8E0917",
"u  c #841215",
"i  c #8A1315",
"p  c #8C1519",
"a  c #81151A",
"s  c #941519",
"d  c #9C151A",
"f  c #9C181B",
"g  c #A3161A",
"h  c #AD171B",
"j  c #AE1A1B",
"k  c #A3181C",
"l  c #B3161B",
"z  c #B4191C",
"x  c #BC191C",
"c  c #BA171D",
"v  c #B50519",
"b  c #822A1D",
"n  c #971922",
"m  c #8C0221",
"M  c #B81D22",
"N  c #AA1C20",
"B  c #832923",
"V  c #BD242B",
"C  c #B8272C",
"Z  c #B2252B",
"A  c #DF0010",
"S  c #C5171B",
"D  c #CD171B",
"F  c #C3191C",
"G  c #CB1A1D",
"H  c #D5171A",
"J  c #D41A1C",
"K  c #DA1A1C",
"L  c #DB171B",
"P  c #E2191C",
"I  c #E8191C",
"U  c #E70019",
"Y  c #CB211E",
"T  c #C41D23",
"R  c #CD1D22",
"E  c #C81926",
"W  c #D31D24",
"Q  c #DB1D23",
"!  c #D61623",
"~  c #E41E25",
"^  c #CD252C",
"/  c #C7272A",
"(  c #DE242B",
")  c #D32427",
"_  c #C72E37",
"`  c #D72B33",
"'  c #CB333C",
"]  c #D6353E",
"[  c #DF323A",
"{  c #E5272F",
"}  c #E42C33",
"|  c #E8343D",
" . c #845B12",
".. c #8F6113",
"X. c #926D30",
"o. c #A77A3E",
"O. c #AF3C46",
"+. c #C53A45",
"@. c #D83A45",
"#. c #E33A43",
"$. c #B64B55",
"%. c #856B44",
"&. c #967547",
"*. c #907951",
"=. c #DB434F",
"-. c #D3434D",
";. c #C74B57",
":. c #D14955",
">. c #DE515D",
",. c #C85A66",
"<. c #D55B67",
"1. c #E55865",
"2. c #CB626E",
"3. c #D36874",
"4. c #CD6D78",
"5. c #EF606D",
"6. c #E46A78",
"7. c #00852E",
"8. c #4E8032",
"9. c #598733",
"0. c #5A9D39",
"q. c #4B952E",
"w. c #72A933",
"e. c #749946",
"r. c #7AA046",
"t. c #96893E",
"y. c #9E804D",
"u. c #919253",
"i. c #A9874D",
"p. c #AB8C58",
"a. c #B18C50",
"s. c #B89556",
"d. c #86A848",
"f. c #93A84B",
"g. c #8AB348",
"h. c #92BD49",
"j. c #92A552",
"k. c #99B456",
"l. c #8CA359",
"z. c #A2B45A",
"x. c #A5B85A",
"c. c #9E8B60",
"v. c #A28E62",
"b. c #A99463",
"n. c #BD9E64",
"m. c #9CAB71",
"M. c #B6AB7A",
"N. c #B0B871",
"B. c #C5B47D",
"V. c #CBB77E",
"C. c #CDB275",
"Z. c #A5C758",
"A. c #A5D04D",
"S. c #BFE15E",
"D. c #98C766",
"F. c #A9C964",
"G. c #B3DC65",
"H. c #B6D964",
"J. c #BBE169",
"K. c #CAE575",
"L. c #C2E66E",
"P. c #C97C87",
"I. c #DB7C87",
"U. c #E77885",
"Y. c #DC8A95",
"T. c #D88993",
"R. c #E4828D",
"E. c #E98B98",
"W. c #CBBC83",
"Q. c #C2B78A",
"!. c #D0BE83",
"~. c #D39DA4",
"^. c #D99AA3",
"/. c #EC99A4",
"(. c #C5A3A8",
"). c #DDB4BA",
"_. c #DBA7AF",
"`. c #EBADB6",
"'. c #E2B5BB",
"]. c #EDA3AD",
"[. c #BACB87",
"{. c #CAC28A",
"}. c #D9C385",
"|. c #CDC89A",
" X c #D9CD97",
".X c #DAD29B",
"XX c #E0D192",
"oX c #DEF291",
"OX c #DDDAAC",
"+X c #D9D5A8",
"@X c #DBDBB5",
"#X c #CACBBC",
"$X c #E4DEAA",
"%X c #E0DDBC",
"&X c #EBE7AD",
"*X c #EBE9BD",
"=X c #E8E6B7",
"-X c #F6F1B6",
";X c #F1EEB6",
":X c #E4BDC3",
">X c #F0BEC5",
",X c #D9DAD3",
"<X c #E8E6C7",
"1X c #FBF8C3",
"2X c #E5E5D9",
"3X c #EBEBE4",
"4X c #EFF1E1",
"5X c #F8F8E2",
"6X c #FFFFFA",
/* pixels */
"                                                                                                    ",
"                                                                                                    ",
"                                                                                                    ",
"                                                                                                    ",
"                                                                                                    ",
"                            k.d.                                                                    ",
"                          z.oXA.9.                                                                  ",
"                          G.K.h.0.                                                                  ",
"                          9.w.0.e                       f.z.x.x.z.k.j.                              ",
"                            e.e.                  f.Z.J.J.H.G.G.J.L.K.K.[.                          ",
"                            l.F.            j.F.K.J.g.8.8     6 7 9 q.D.5X                          ",
"                              Z.k.    d.f.Z.Z.d.z.F.                  r m.                          ",
"                                d.h.h.g.e.e       d.                                                ",
"                                                  e.                                                ",
"                                                  k.                                                ",
"                                            k y F.H.7.5 a                                           ",
"                                        > l J E t.d.X.W x s #                                       ",
"                                      d I x G I A S U K h S f -                                     ",
"                                    g R K M ~ E W Y Y G G x h f :                                   ",
"                                  d F Q R M } ` ^ W G K D D F g p ;                                 ",
"                                > D ~ F ^ #.+.@.[ / F J F F D x d i $                               ",
"                              - P G M / =.1.,.3.$.] ^ J K G F G g s , .                             ",
"                              d D W ) =.,.P./.Y.U.:.` j D G H F l d i $                             ",
"                            - J N ) ] <.I._.).'.T.,._ ( K z L x l f i u o                           ",
"                            f D M ( +.U.^.).:X'.~.2.@./ ! J F L c l : u +                           ",
"                            z Y M C >.R.~.(.:X).^.3.@.( G K h H D g a u # .                         ",
"                          > W z / [ ;.P.~.'.:X(./.3.] / K K F z l d f u & o                         ",
"                          p x j Q _ 1.P.`.>X).`.I.5.] ) K x x P S l s u # O                         ",
"                          a F F Q _ :.4.].~.]./.3.:.` ) x M K G h l i u , O                         ",
"                          : c F ! { =.,.U.E.T.4.$.@.{ D I j K H h f s & % O                         ",
"                          > l F M V ] ;.,.6.3.1.=.} / H K G z H l h f & % O                         ",
"                          @ g h G G C ] =.O.=.+.C Q G K K F K h g s i % ; .                         ",
"                            ; f S G ~ / _ | [ { W R I F S J S l p p p % O                           ",
"                              - k z T F Q E T T P M D I D j h s ; i % O                             ",
"                                - n z f T c G c l F l h f h p u & # +                               ",
"                                    > n n v g d x l x g y y * % +                                   ",
"                                      3 1 1 4 4 y 4 s n B b 1 2 <                                   ",
"                                    %.n.a.o.X.q ..0 0  . .X.X.o.%.                                  ",
"                                    y. X-X|..X+XQ.Q. X X XW.B.i.&.                                  ",
"                                    b.W.OX=X#X,X4X<X1X@X;X XW.a.%.                                  ",
"                                    b.M.;X<X4X3X6X<X$XOX;XQ.{.s.&.                                  ",
"                                    v.!.&X@X3X,X3X<X=X*XOX{.V.&.i.                                  ",
"                                    *.!..X*X<X,X2X<X+XOX-X{.C.a.%.                                  ",
"                                      c.V.|.<X<X=X=X-XOX&X}.n.i.                                    ",
"                                        c.!.$X$X;XOX&X XQ.C.a.                                      ",
"                                          t c.M.M.Q.W.b.p.w                                         ",
"                                                                                                    ",
"                                                                                                    ",
"                                                                                                    ",
"                                                                                                    "
};
