/* XPM */
static char *_53e30565a3b426aed38a3099e2946demDWMtHORC1Gnwtba[] = {
/* columns rows colors chars-per-pixel */
"50 50 64 1 ",
"  c None",
". c black",
"X c #0A0000",
"o c #0B0000",
"O c #0C0000",
"+ c #0D0000",
"@ c #190000",
"# c #1A0000",
"$ c #210000",
"% c #350000",
"& c #3B0000",
"* c #4A0000",
"= c #630000",
"- c #6C0000",
"; c #7C0000",
": c #7D0000",
"> c #800000",
", c #810000",
"< c #880000",
"1 c #890000",
"2 c #8B0000",
"3 c #8C0000",
"4 c #8D0000",
"5 c #900000",
"6 c #950000",
"7 c #960000",
"8 c #990000",
"9 c #9A0000",
"0 c #9B0000",
"q c #A60000",
"w c #AA0000",
"e c #AC0000",
"r c #AD0000",
"t c #B60000",
"y c #B70000",
"u c #B90000",
"i c #C10000",
"p c #C60000",
"a c #CA0000",
"s c #CB0000",
"d c #D30000",
"f c #D40000",
"g c #D50000",
"h c #D60000",
"j c #DA0000",
"k c #DB0000",
"l c #DD0000",
"z c #DE0000",
"x c #E00000",
"c c #E10000",
"v c #E20000",
"b c #EC0000",
"n c #ED0000",
"m c #EF0000",
"M c #F50000",
"N c #F60000",
"B c #F70000",
"V c #F80000",
"C c #F90000",
"Z c #FA0000",
"A c #FB0000",
"S c #FC0000",
"D c #FD0000",
"F c red",
/* pixels */
"                                                  ",
"                                                  ",
"                                                  ",
"                                                  ",
"                                                  ",
"                                                  ",
"                                                  ",
"            .                         ..          ",
"          .<z<.                      .uf$         ",
"          .wDw.                      .zD=&        ",
"        ..mVBVM..                  .4DBBDs.       ",
"        <wVDVDBe4                  4pDVVDv7:      ",
"       .zDBVVVVDf.               .#VDVVDVDDw.     ",
"        <wVDVDVDmd<.            .ykBVDVVDv7:      ",
"        ..MBVVVVVDe.            #kDVDVVVDs.       ",
"          .eDDDVVBBM..        .4DBVVDVDV-&        ",
"          .4dmDVDVDVe4        4pDVDDVVvs%         ",
"            .fDVVDVBDd.     .XDDVDVVDD8.          ",
"             <eVDVVVDmf4.  .yzBVDVVDv8,           ",
"             ..mVVVDVDDe.  +kDVVVVVDs.            ",
"               .eDVVVVVVM.<DBVVDVDD-%             ",
"               .4fmDVDVDB0iDVVVVVvs&              ",
"                 .fDVVVVVDDVVDVDD8.               ",
"                  4eVDVDVVVDVVDv8,                ",
"                  ..MVVDDVDVDBVs.                 ",
"                    .0DVVDVVDB*.                  ",
"                    <iDVVVDDDVq<                  ",
"                  .+DDVVDVVVVVDf.                 ",
"                 .ykBVDDVVDVVVDmf4.               ",
"                 XzDVVVVVBBVVDVVDe.               ",
"               .4DBBVDVDD*qDDVVVBVM..             ",
"               4pDVVDVVvs.<dmDVDVDBe<             ",
"             .#VDVDDVVD8.  .dDVVVVVDf.            ",
"            .ukBVDVVDv8,    4eVDVDVDmf<.          ",
"            #zDVVVVBDs.     ..mVVVVDVDe.          ",
"          .4VVVVDVDD-&        .eDVDVVVBM..        ",
"          <sDDVDVDvs%         .4fmDVVVDVe4        ",
"        ..DDVVVVVD8.            .fDVVDVVDf.       ",
"       .uzBVDVVDv8,              4eBDVVVDmk4.     ",
"       .fDBVVVVDs.               ..mVVVDBBD0.     ",
"        $=DDVDD-%                  .eDDVDk.       ",
"         &svDzs&                   .4dmVky.       ",
"          .7D7.                      .fD..        ",
"           :w:                        58          ",
"            .                         ..          ",
"                                                  ",
"                                                  ",
"                                                  ",
"                                                  ",
"                                                  "
};
