/* XPM */
static char *luffy_left1671548107[] = {
/* columns rows colors chars-per-pixel */
"50 50 233 2 ",
"   c None",
".  c #000001",
"X  c #040407",
"o  c #1B1204",
"O  c #100F02",
"+  c #281C07",
"@  c #271915",
"#  c #35110B",
"$  c #322106",
"%  c #392601",
"&  c #372818",
"*  c #2B2726",
"=  c #312F2E",
"-  c #590903",
";  c #5E0A10",
":  c #660000",
">  c #761205",
",  c #670014",
"<  c #760114",
"1  c #751716",
"2  c #6C0F06",
"3  c #583701",
"4  c #4D2C17",
"5  c #6C3D00",
"6  c #6B3400",
"7  c #773905",
"8  c #782213",
"9  c #7D3116",
"0  c #702512",
"q  c #5F1C29",
"w  c #482D23",
"e  c #593D29",
"r  c #4C3225",
"t  c #742F28",
"y  c #6A4802",
"u  c #724800",
"i  c #634214",
"p  c #5B4435",
"a  c #5D422F",
"s  c #614A37",
"d  c #754637",
"f  c #78533A",
"g  c #69432E",
"h  c #575758",
"j  c #564B50",
"k  c #6D504F",
"l  c #644F61",
"z  c #777878",
"x  c #5A5872",
"c  c #8B0605",
"v  c #870316",
"b  c #920017",
"n  c #920118",
"m  c #950818",
"M  c #891816",
"N  c #951419",
"B  c #991E1A",
"V  c #951917",
"C  c #900901",
"Z  c #862400",
"A  c #882619",
"S  c #9A2619",
"D  c #9A2A18",
"F  c #922617",
"G  c #853913",
"H  c #993616",
"J  c #933C00",
"K  c #862822",
"L  c #9A3226",
"P  c #8D2A23",
"I  c #A13F30",
"U  c #964700",
"Y  c #8D5A05",
"T  c #9B5D02",
"R  c #925607",
"E  c #894914",
"W  c #984617",
"Q  c #8F5117",
"!  c #9B5015",
"~  c #A55B08",
"^  c #A65519",
"/  c #A1441A",
"(  c #9C6A02",
")  c #996206",
"_  c #9E6B15",
"`  c #8E6001",
"'  c #A36D02",
"]  c #A66704",
"[  c #A67304",
"{  c #AC7403",
"}  c #AE7B03",
"|  c #AE790A",
" . c #A9750D",
".. c #B27B0C",
"X. c #B27801",
"o. c #A56B12",
"O. c #AC7617",
"+. c #B37B15",
"@. c #B76C1D",
"#. c #85573B",
"$. c #98542C",
"%. c #AC593F",
"&. c #9C6824",
"*. c #9A6536",
"=. c #A4682B",
"-. c #A67426",
";. c #B27D23",
":. c #A97934",
">. c #A56736",
",. c #8B3446",
"<. c #8A5D47",
"1. c #905F43",
"2. c #9A6747",
"3. c #966C58",
"4. c #8B6447",
"5. c #A36A49",
"6. c #A46D50",
"7. c #AB7452",
"8. c #A97855",
"9. c #B77B57",
"0. c #AD7245",
"q. c #85756B",
"w. c #8C7568",
"e. c #A07B61",
"r. c #C37C4F",
"t. c #B6820C",
"y. c #BB8204",
"u. c #B68215",
"i. c #BB8413",
"p. c #BE8913",
"a. c #BD841C",
"s. c #BB8731",
"d. c #C78A00",
"f. c #D89900",
"g. c #C18916",
"h. c #C48C19",
"j. c #CC931C",
"k. c #CF9714",
"l. c #D39A1D",
"z. c #DA9E1C",
"x. c #D2981B",
"c. c #CD9101",
"v. c #CE962D",
"b. c #CA9421",
"n. c #D19321",
"m. c #D69C21",
"M. c #D99E21",
"N. c #D3992A",
"B. c #D89F2E",
"V. c #D39B37",
"C. c #CD9736",
"Z. c #DDA323",
"A. c #DDA32B",
"S. c #DDA434",
"D. c #E1A524",
"F. c #E3A825",
"G. c #E1A62A",
"H. c #E3A92C",
"J. c #EBAE2D",
"K. c #E5AB37",
"L. c #BB835D",
"P. c #B4845C",
"I. c #B2834E",
"U. c #B48B64",
"Y. c #BC9A7A",
"T. c #AD887B",
"R. c #C8845B",
"E. c #D19950",
"W. c #EBB25A",
"Q. c #C68B63",
"!. c #D28D62",
"~. c #C89868",
"^. c #D6966A",
"/. c #C89974",
"(. c #D49D73",
"). c #DC9D71",
"_. c #D4A175",
"`. c #D9A376",
"'. c #E4AE7D",
"]. c #E4A878",
"[. c #E8B579",
"{. c #EEB469",
"}. c #5B5E8A",
"|. c #536698",
" X c #6A709A",
".X c #4968A5",
"XX c #6373A4",
"oX c #827E8D",
"OX c #788DBA",
"+X c #7883A4",
"@X c #989999",
"#X c #83888B",
"$X c #BB9E86",
"%X c #B69998",
"&X c #A69192",
"*X c #B4A08F",
"=X c #AAA9A9",
"-X c #C8A889",
";X c #C6AC95",
":X c #C7B19E",
">X c #D1B292",
",X c #D9B383",
"<X c #E5AD82",
"1X c #E6B183",
"2X c #EAB484",
"3X c #EBB889",
"4X c #F3BD8C",
"5X c #F3B886",
"6X c #EEBF98",
"7X c #D2BDB1",
"8X c #BEC2BC",
"9X c #F6C396",
"0X c #D4C4B3",
"qX c #EFCEA9",
"wX c #8294C0",
"eX c #BFC9C6",
"rX c #CCCCCC",
"tX c #CACCC2",
"yX c #DDCEC2",
"uX c #D8D9D8",
"iX c #DAD0C9",
"pX c #E8D6C6",
"aX c #E7DBD3",
"sX c #EBE2DA",
"dX c #F7E6DB",
"fX c #FFE9C3",
"gX c #DFE0E0",
"hX c #EDEDEB",
"jX c #F6EDE8",
"kX c #F7F1EC",
"lX c #F5F5F5",
"zX c #FEFEFD",
"xX c #F8F8F8",
/* pixels */
"                                              pXsX                                                  ",
"                                    zXsX*.y.J.N.P.~.{.W.{.qX                                        ",
"                                  hXkXpX;.c.J.f.{ d.f.f.c.,X                                        ",
"                                zXsX8.a.S.Z.Z.A.A.A.H.v.O.O.U.~.W.fX                                ",
"                              hXlXyXR X.H.Z.n.Z.Z.Z.Z.x...} { y.f.3XpX                              ",
"                        zXzXzXuXk E :.b.F.j.( i.D.D.Z.Z.Z.A.S.K.K.E.2.pX                            ",
"                      pXkXkXlXtX: Z o...m.j...p.x.z.Z.Z.Z.D.Z.z.m.b.] >XaX                          ",
"            zXaX&.y.K.v.0.*.K t t K V ! [ p.D.j.( i.D.Z.Z.D.D.j.' i.H.V.0.pX                        ",
"            xXpX+.c.J.f.{ T > > 1 M n W T +.F.l...g.Z.Z.Z.Z.D.l.| p.H.x.U ;X                        ",
"            >.a.G.D.Z.A.K.C.-.$.V n S D V @.D.D.Z.Z.Z.Z.Z.Z.Z.Z.Z.Z.A.N.T 0X                        ",
"            /.~.x.l.Z.Z.D.x.t. ./ H F M b ^ n.N.Z.Z.Z.Z.Z.Z.Z.Z.Z.Z.Z.N.{ >XsX                      ",
"            zXsX-.d.H.D.Z.D.Z.j.' R 1 < 8 A S @.Z.F.D.D.Z.Z.Z.Z.Z.Z.F.Z.Z.C.P.0X                    ",
"            zXiX$.} N.l.l.z.F.b.t.o.E 9 8 1 n ^ n.x.x.z.Z.Z.Z.Z.Z.Z.l.m.H.N.U ;X                    ",
"                . 5 ..t.[ p.Z.Z.Z.h.( R 1 < S D S ^ [ g.F.F.Z.D.Z.l.( t.H.N.U >X                    ",
"                #Xq.) ( _ i.l.Z.D.x.t.o.E G F V n H ) +.n.n.n.n.m.j.+.i.x.E.Y.yX                    ",
"                xXrX= u +.} [ h.D.Z.Z.j.( Y , < n m D D D H D ^ [ p.F.l.O.-X                        ",
"                xXuX= 3 &.( Y +.m.m.m.j.t. .Q ! ^ / M m n n n H ) | N.g.&.$X                        ",
"                zXrXX X & + o y [ { [ p.Z.Z.Z.M.G.a., < S B S F D F 9 8 t &X                        ",
"                zXuXz h = * w #.I.:.Y u.S.B.n.Z.D.b.Q W W H F V B M 1 > A T.                        ",
"                zXzXxXrXX - 2.U.5X~.& 5 ] ' [ p.D.D.Z.j.' R , < b v , G _ :.T :X                    ",
"                zXzXlXrXz T.I.(.5X/.@ k Y.U._ t.m.l.Z.j.t.O.Q W ^ ^ E ! a.+.~ 7X                    ",
"                zXgXj =XlXdX`.1X5XY.X @XxXsX&.[ ;.| [ i.Z.Z.Z.Z.m.Z.M.M.D.C.T :X                    ",
"                zXrX. =XzXdX].'.5X/.a *XlXiXs.-.&.( ' +.l.m.m.Z.Z.D.D.Z.M.v.' >X                    ",
"                        zXjX!.).3X[.2X/.j e.3X~.o y | } ..| [ i.D.D.D.n.' u.Z.K.{.[.                ",
"                        zXaXr.^.3X2X4X(.y I.9X/.& i o.( ` ( ( i.m.Z.Z.l.| u.A.l.f.f.                ",
"                            g U.4X5X2X5X2X2X5X_.6.#.+ o + u } | [ p.Z.F.Z.f.' ( X.'                 ",
"                            w 8.<X'.'.2X<X2X5X`.L.2.r @ X 3 ( ) `  .b.j.k.E.Y.-X-X$X                ",
"                                9.!.^.^.!.].3X3X3X_.8.1.@ X $ $ $ % 4 4 % @X                        ",
"                                6.9.!.!.L.!.'.'.[.(.7.#.$ O . . . . X . . @X                        ",
"                                    R.6.f 1.7.7.9.6.a t 1 ; O X o o + +                             ",
"                                    7.4.r <.L.7.2.1.f g t 1 # @ = * X .                             ",
"                                            9X_.p f 7.1.r 4 1 - . .                                 ",
"                                            5X^.q #.9.6.4.k M k z z                                 ",
"                                        1 K I L c %.!.^.1X/.- &XkXxX                                ",
"                                        8 v C m L 0.!.).4X(.2 %XzXzX                                ",
"                                    } ~ N V V $.5.5.5.Q.4X(.Z %XzXzX                                ",
"                                    | o.N V b 1.9.U.9.Q.1X/.c %XzXzX                                ",
"                                    8 M B B : 6.<X2X2X`.9.6.: %XzXzX                                ",
"                                    A F B P ; 6.2X5X5X(.6.<.q &XzXzX                                ",
"                                    ..~ C Z 3 2.^.].5X(.u l  X X                                    ",
"                                    } =.,.,.h 3.Q.^.<X/.k x XX.X                                    ",
"                                        }.XX.X}.6 6 5 k .X.X|.|.                                    ",
"                                        |.XXOX+Xq.q.z oXOXOX+XXX                                    ",
"                                            tXuXlXlXlXxXzXhXuX0X                                    ",
"                                            0XsXzXzXxXzXzXhXtXtX                                    ",
"                                        p 3.(.'.6X9X9X1X/.T.                                        ",
"                                        e 2.I.!.`.`.`.^.>.!                                         ",
"                                            a a s p k p                                             ",
"                                            . . . . . .                                             ",
"                                                                                                    "
};
