/* XPM */
static char *luffy_right1671548107[] = {
/* columns rows colors chars-per-pixel */
"50 50 220 2 ",
"   c None",
".  c #010001",
"X  c #0A0403",
"o  c #000B03",
"O  c #080606",
"+  c #130A03",
"@  c #160804",
"#  c #1C1309",
"$  c #00111C",
"%  c #280E04",
"&  c #26140D",
"*  c #251907",
"=  c #261B13",
"-  c #352409",
";  c #38261A",
":  c #2A201A",
">  c #2A343B",
",  c #5F0B0A",
"<  c #6C0807",
"1  c #761905",
"2  c #6A0314",
"3  c #720B15",
"4  c #700414",
"5  c #6C1914",
"6  c #721414",
"7  c #781D16",
"8  c #7B0000",
"9  c #5D3F04",
"0  c #412B00",
"q  c #722314",
"w  c #7A2819",
"e  c #7A3211",
"r  c #6C251B",
"t  c #5A2F22",
"y  c #4D3324",
"u  c #45362B",
"i  c #5A3B2B",
"p  c #573B31",
"a  c #432C23",
"s  c #772825",
"d  c #643D2C",
"f  c #644403",
"g  c #6A4804",
"h  c #7A5305",
"j  c #6F4A0D",
"k  c #5E402E",
"l  c #68422F",
"z  c #654532",
"x  c #6C4732",
"c  c #6C4B35",
"v  c #6B4A38",
"b  c #714D37",
"n  c #7A543A",
"m  c #7B533B",
"M  c #383B4A",
"N  c #6D3647",
"B  c #71364A",
"V  c #3E4050",
"C  c #4C4552",
"Z  c #754E49",
"A  c #7E6052",
"S  c #870300",
"D  c #930005",
"F  c #890016",
"G  c #870417",
"H  c #940319",
"J  c #920917",
"K  c #8D1C16",
"L  c #8B1617",
"P  c #931D17",
"I  c #951418",
"U  c #951B19",
"Y  c #991C19",
"T  c #862716",
"R  c #952C16",
"E  c #96221B",
"W  c #992519",
"Q  c #972618",
"!  c #883914",
"~  c #9B3318",
"^  c #8C3308",
"/  c #8E1E20",
"(  c #962922",
")  c #863726",
"_  c #89372B",
"`  c #88480F",
"'  c #9A4D0F",
"]  c #9D410E",
"[  c #855A05",
"{  c #96580B",
"}  c #854213",
"|  c #9A4512",
" . c #865916",
".. c #9D5913",
"X. c #A45E12",
"o. c #9C6703",
"O. c #9E6A01",
"+. c #9A6807",
"@. c #886211",
"#. c #9F6713",
"$. c #A26E02",
"%. c #A46908",
"&. c #A67104",
"*. c #AB7505",
"=. c #AD7B05",
"-. c #AE790B",
";. c #A9740C",
":. c #B37B05",
">. c #B17B0C",
",. c #B97F07",
"<. c #A36211",
"1. c #A46A14",
"2. c #AE7815",
"3. c #BB741D",
"4. c #BB7C1D",
"5. c #B47A17",
"6. c #855939",
"7. c #8F4134",
"8. c #A14F39",
"9. c #8F6737",
"0. c #AC6F2E",
"q. c #C27F1F",
"w. c #875D43",
"e. c #9E5E5F",
"r. c #AC5841",
"t. c #896346",
"y. c #9C6648",
"u. c #9C6B4B",
"i. c #956648",
"p. c #8F6E52",
"a. c #A36C4C",
"s. c #A66A49",
"d. c #AD714D",
"f. c #A7714D",
"g. c #AC7452",
"h. c #A97557",
"j. c #B17B5A",
"k. c #B67C56",
"l. c #C27E57",
"z. c #B9810A",
"x. c #B68111",
"c. c #BB8513",
"v. c #BE8815",
"b. c #BC831D",
"n. c #BE8821",
"m. c #C38B15",
"M. c #C4821F",
"N. c #C68E19",
"B. c #C98E17",
"V. c #CC931B",
"C. c #C99118",
"Z. c #D49A1E",
"A. c #D0971E",
"S. c #CC8C20",
"D. c #D69C20",
"F. c #D99E21",
"G. c #D49724",
"H. c #DDA323",
"J. c #E1A624",
"K. c #E5A925",
"L. c #EBAC23",
"P. c #F3B426",
"I. c #E6AB32",
"U. c #B7855C",
"Y. c #B78A64",
"T. c #BA9265",
"R. c #C4845D",
"E. c #CC975D",
"W. c #C18962",
"Q. c #CC8B61",
"!. c #C98761",
"~. c #D58E64",
"^. c #D98F61",
"/. c #D49667",
"(. c #C99A71",
"). c #D99E73",
"_. c #CB9B6F",
"`. c #E29669",
"'. c #CEA077",
"]. c #DAA579",
"[. c #E3A274",
"{. c #E3AC7D",
"}. c #EAA875",
"|. c #EBB178",
" X c #394A8B",
".X c #4D5D8B",
"XX c #635D86",
"oX c #5B658F",
"OX c #5D6D9B",
"+X c #576696",
"@X c #5E709F",
"#X c #60648C",
"$X c #4B6CAA",
"%X c #5A75AC",
"&X c #566DA0",
"*X c #6576A6",
"=X c #7D829F",
"-X c #7C89A7",
";X c #7D8EB4",
":X c #82849D",
">X c #BDA083",
",X c #939DAC",
"<X c #B6B4AB",
"1X c #D1AE95",
"2X c #E6AF81",
"3X c #EAB485",
"4X c #EEB989",
"5X c #EAB485",
"6X c #F2BB89",
"7X c #C8B8AE",
"8X c #F8C18F",
"9X c #C6C8BD",
"0X c #D2C0B2",
"qX c #E7C7B1",
"wX c #CCCEC5",
"eX c #C5CBC5",
"rX c #CDD2CA",
"tX c #D3D9D1",
"yX c #EAD4C4",
"uX c #F1F1F0",
/* pixels */
"                                                                                                    ",
"                                        K.J.J.D.&.-.H.Z.&.O.                                        ",
"                                        Z.L.K.J.c.m.L.H.m.>.                                        ",
"                                J.H.-.$.&.>.F.J.Z.H.J.J.J.A.*.&.                                    ",
"                                H.P.m.x.>.x.D.J.H.H.Z.Z.J.Z.,.$.                                    ",
"                            $.=.D.K.H.H.H.H.H.H.J.H.&.-.J.Z.=.+.K 3                                 ",
"                            x.B.V.G.H.J.H.H.H.H.Z.A.x.c.G.N.%.' T 6                                 ",
"                        &.:.Z.H.>.&.Z.H.H.H.J.D.&.-.H.G.=.%.W L q 6 3 ` O.B.J.B.&.                  ",
"                        &.z.Z.J.v.x.H.J.H.H.J.Z.x.v.H.D.%.' I H K e } 1.c.Z.L.Z.m.z.                ",
"                        O.*.Z.J.H.H.H.H.H.H.H.H.H.H.K.G.~ H W U H | %.v.H.H.H.J.J.V.z.              ",
"                        c.m.F.H.H.H.H.H.H.H.H.H.H.H.V.3.E G K R | 1.c.V.J.J.H.Z.Z.m.;.              ",
"                    &.:.Z.J.J.J.H.H.H.H.H.H.H.H.K.G.~ F w 5 3 } O.v.H.H.H.J.J.C.:.                  ",
"                    &.,.Z.J.A.C.H.H.H.H.H.H.V.N.N.3.E F 5 e ` #.c.V.J.F.V.V.A.2.[                   ",
"                    &.z.Z.J.-.O.Z.K.J.H.K.F.z.O.W U R R 6 ! O.x.H.J.J.V.$.&.:.h *                   ",
"                      *.B.A.m.m.N.V.N.q.M.q.X.' W J K T ` 1.v.V.H.F.C.v.&.+.[ f .                   ",
"                        &.:.F.K.x.O.~ J P P Y P I L 2 e O.c.H.H.J.V.;.&.:.h *                       ",
"                        { ..2.4.<.' R H I I F ! 3.3.2.4.v.N.N.N.V.2.h h [ 9 .                       ",
"                        5 w 5 6 K Y W W U P , ! F.J.J.K.I.G.;.&.;.h - # + + + +                     ",
"                      *.{ { e 3 L I G T ' #.5.b.H.H.N.v.B.5.g 9./.U.m d + .                         ",
"                    *.z.*.&.e 5 K E 4 q o.x.H.K.J.G.;.#.0. .@ p.6X].g.w.= .                         ",
"                    &.:.m.V.b.b.q.M.b.b.N.C.m.v.N.n.O.Y.yX<X$ t.4X2X).W.    #                       ",
"                    $.*.Z.J.H.J.H.J.J.J.K.F.;.O.;.2.{ >XuXuX> 6.4X6X8X6X    # .                     ",
"                  K.Z.V.v.v.F.H.H.H.B.c.m.v.-.#.f 6.E.2XqXqX(._.4X2X|.[.                            ",
"                K.P.K.J.x.O.A.J.H.H.-.O.$.$.-.1.# Z 4X6X|.|.4X4X4X{.`.~.                            ",
"                m.C.m.c.V.A.H.H.B.c.>.&.j 9 f j n f.3X6X3X4X3X3X4X).u.i.                            ",
"                &.:.$.&.Z.K.J.F.>.O.-.+.- O . a u.R.{.3X3X3X5X3X6X(.i y                             ",
"                        @.@.@. .j 9 f 9 o ; 6.f.].{.4X3X[.).]./.Q.U.                                ",
"                        . . . . . . . X . y s.W.{.6X3X{.^.^./.R.j.g.                                ",
"                            * # + @ o @ , r x w.Y.W.Y.j.i.a.0.7X                                    ",
"                            + @ X + X % 7 T i b y.s.d.s.p b X.7X                                    ",
"                                . @ , q t l y.u.x u.3X|.                                            ",
"                                o & 6 w x Z g.g.t t.6X6X                                            ",
"                                    < ) R.R.g.a.( ( r.8.w s                                         ",
"                                    < _ ~.^.f.s.( D D S K s                                         ",
"                                a.a.l d g.g.8.W E Y ( W G | 2.T.                                    ",
"                                U.Q.w.Z u.y.U H Y Y U W H | x.$.                                    ",
"                            f.g.].2X/.l.6.x 1 S U U I Y Y U w 7.                                    ",
"                            f.R.2X4X).~.6.i N B / U / / ( ( ) _                                     ",
"                            g.U.2X4X6X2X6.p oXXX7 8 1 S S Q %.$.                                    ",
"                            y.g.(.2X2X(.p.C &X+XB N N Z e.h.T.U.                                    ",
"                            x n f.j.c M oXOX%X%X#XoX X-XwXrXwX9X                                    ",
"                            y i i.i.y > .XoX%X%X&X@X-X,XeXrXrXrX                                    ",
"                            O = z c v z u C oXOX$X;XwX9X    tXtX                                    ",
"                            . . y i z z 0 M oXOX$X;XrXwX    <X<X                                    ",
"                                X & x v     OX*X+X-XeXeXtX<X> m }.!.v l                             ",
"                                . X k v     OXOX.X-X<X7X7X1Xp.p.R.a.z                               ",
"                                                    g.R.^.[.8X'.; .                                 ",
"                                                    d.d.d.U.(.U.O                                   ",
"                                                        : = = =                                     ",
"                                                        . . .                                       "
};
