/* XPM */
static char *luffy_up1671548107[] = {
/* columns rows colors chars-per-pixel */
"50 50 221 2 ",
"   c None",
".  c #000002",
"X  c #030801",
"o  c #1A0D0C",
"O  c #120005",
"+  c #051518",
"@  c #191710",
"#  c #290604",
"$  c #370504",
"%  c #2B1707",
"&  c #37130D",
"*  c #251814",
"=  c #29221B",
"-  c #352414",
";  c #001A25",
":  c #1B1B22",
">  c #182833",
",  c #2E2623",
"<  c #332929",
"1  c #39393A",
"2  c #3C332F",
"3  c #420806",
"4  c #570908",
"5  c #4A130F",
"6  c #680605",
"7  c #750000",
"8  c #7C0008",
"9  c #68150D",
"0  c #6C0013",
"q  c #760A15",
"w  c #6B1D13",
"e  c #6A1415",
"r  c #7C1A15",
"t  c #741A15",
"y  c #592605",
"u  c #4C3402",
"i  c #523804",
"p  c #563406",
"a  c #483011",
"s  c #673901",
"d  c #692415",
"f  c #762618",
"g  c #652F00",
"h  c #6F0827",
"j  c #463423",
"k  c #5C3B2A",
"l  c #533626",
"z  c #4B3934",
"x  c #623A29",
"c  c #6F362C",
"v  c #774500",
"b  c #6F4B0C",
"n  c #5D4434",
"m  c #5F402E",
"M  c #67442E",
"N  c #6A4B39",
"B  c #754B33",
"V  c #75513B",
"C  c #7B5339",
"Z  c #754F28",
"A  c #373C41",
"S  c #55585C",
"D  c #745145",
"F  c #7D665C",
"G  c #73547A",
"H  c #685668",
"J  c #777372",
"K  c #840C16",
"L  c #880615",
"P  c #990E14",
"I  c #930A17",
"U  c #831B16",
"Y  c #8B1A16",
"T  c #871416",
"R  c #951917",
"E  c #951B1A",
"W  c #991C19",
"Q  c #961716",
"!  c #90050A",
"~  c #843B05",
"^  c #852917",
"/  c #952219",
"(  c #972818",
")  c #803B10",
"_  c #982223",
"`  c #912B2B",
"'  c #8D5505",
"]  c #9B5908",
"[  c #864214",
"{  c #974814",
"}  c #A35A13",
"|  c #9E6A02",
" . c #9C6606",
".. c #8D6610",
"X. c #A16D03",
"o. c #A26E0D",
"O. c #A67204",
"+. c #AA7503",
"@. c #AD7909",
"#. c #B37D0D",
"$. c #B77A02",
"%. c #A66619",
"&. c #B77B1B",
"*. c #B27518",
"=. c #965726",
"-. c #854F3B",
";. c #966725",
":. c #A97132",
">. c #C27D1E",
",. c #825A41",
"<. c #985E41",
"1. c #8A6145",
"2. c #986446",
"3. c #987255",
"4. c #A36E4D",
"5. c #A6714E",
"6. c #BA7746",
"7. c #AD7452",
"8. c #A87352",
"9. c #B57A56",
"0. c #B67C58",
"q. c #84746C",
"w. c #867B78",
"e. c #A67F61",
"r. c #C47D4E",
"t. c #BB830A",
"y. c #B88207",
"u. c #BC8512",
"i. c #BF8915",
"p. c #B9801E",
"a. c #B78113",
"s. c #C28C15",
"d. c #C4811F",
"f. c #C38C19",
"g. c #CC9216",
"h. c #CB931B",
"j. c #C7901A",
"k. c #D49A1D",
"l. c #D79C1C",
"z. c #CB9108",
"x. c #CC952B",
"c. c #D69C21",
"v. c #D99E21",
"b. c #D39925",
"n. c #CC9329",
"m. c #DDA223",
"M. c #DEA429",
"N. c #DEA538",
"B. c #E1A624",
"V. c #E4A824",
"C. c #EBAD25",
"Z. c #E1A629",
"A. c #E6AB32",
"S. c #F4B62D",
"D. c #BD815D",
"F. c #BA8B69",
"G. c #AF8D6B",
"H. c #C6855C",
"J. c #D68957",
"K. c #CD8A61",
"L. c #C28B64",
"P. c #D38F64",
"I. c #CA956B",
"U. c #DC966B",
"Y. c #D8956A",
"T. c #E39A6C",
"R. c #E09C70",
"E. c #DDAA7C",
"W. c #D5A67A",
"Q. c #CBA77A",
"!. c #E5AB7A",
"~. c #E3A56D",
"^. c #485B8E",
"/. c #685984",
"(. c #7C5983",
"). c #705985",
"_. c #576698",
"`. c #606997",
"'. c #6A769F",
"]. c #596DA2",
"[. c #526FA9",
"{. c #4F72AF",
"}. c #5473AD",
"|. c #5A74A7",
" X c #5B7DB5",
".X c #5578B3",
"XX c #4F6FAB",
"oX c #697CAE",
"OX c #607DB5",
"+X c #878788",
"@X c #9C938F",
"#X c #959695",
"$X c #A88882",
"%X c #AE978B",
"&X c #959EAE",
"*X c #8792AD",
"=X c #ADA4A1",
"-X c #A7ADB2",
";X c #AEB6BD",
":X c #C6AE99",
">X c #D7AC94",
",X c #E4AF81",
"<X c #EAB486",
"1X c #F3BC8A",
"2X c #E3B7A3",
"3X c #EECAAF",
"4X c #B3BAC1",
"5X c #BAC1CB",
"6X c #D1D2C5",
"7X c #CCD2DC",
"8X c #D6D7D3",
"9X c #D5CCC7",
"0X c #E5D9D5",
"qX c #EBE5DC",
"wX c #F0E4DC",
"eX c #D6DCE8",
"rX c #DCE1EC",
"tX c #EAE7E4",
"yX c #FEFDFC",
"uX c #F4F4F2",
"iX c #F1EAE8",
/* pixels */
"                                                                                                    ",
"                                      | s.C.f.| f.V.B.m.a.|                                         ",
"                                      #.g.C.k.@.k.C.C.C.g.@.                                        ",
"                                  | t.m.m.m.m.c.m.B.V.m.m.c.#.|                                     ",
"                                  #.h.m.m.m.m.V.m.m.m.m.B.B.g.@.                                    ",
"                              | #.m.h.X.i.V.m.m.m.m.B.m.m.m.m.k.#.|                                 ",
"                              #.g.V.k.@.i.c.c.m.B.m.B.m.m.m.V.m.z.:.                                ",
"                              B.C.V.m.m.f.X.f.V.m.m.m.m.m.m.Z.N.+.F.yXyX                            ",
"                              n.k.h.v.M.h.#.g.B.m.m.m.m.m.m.b.x.X.G.wXtX                            ",
"                      V.Z.{ 0 f [ O.i.m.m.m.m.m.m.m.m.V.V.m.i.o.f t c -.] :XyXyX                    ",
"                      B.V.) 0 K ) ' *.m.V.m.m.m.m.m.k.h.h.h.o.' ^ 8 6 ~ $.W.wXtX                    ",
"                  | $.m.c.f 0 ( ( e %.V.V.m.V.B.V.V.s.| @.O.) t / / h =.B.b.=.:XyXyX                ",
"                  i.h.m.v.*.%.( L q { >.d.d.d.d.d.d.%.] ] } ^ L I ( )  .m.v.$.Q.wX0X                ",
"              O.t.l.V.m.m.C.v.( L W W / / / / / / / W / / W Q E I ( X.#.v.m.A.b.:.=.                ",
"              O.t.k.V.m.m.h.f.&.*.} { K L I L L L K K K L Y { } *.>.f.h.m.V.B.l.z.s.                ",
"              O.t.k.m.V.c.| @.m.b.+.] f r W ^ d t d w w 9 d | @.c.V.B.m.m.V.m.C.S.A.                ",
"                  m.C.V.m.h.k.m.m.j.f.p.&.d.&.p.p.p.&.&.p.p.f.h.m.m.M.m.i.g.V.V.                    ",
"                  V.C.m.m.m.m.m.m.m.V.m.V.V.V.Z.V.V.V.V.Z.Z.V.V.m.m.M.k.| a.C.M.                    ",
"                      V.V.i.t.u.j.m.m.m.m.m.M.m.m.V.m.m.m.m.m.m.f.u.i.i.h.i.o...                    ",
"                      m.M.p.;.| #.m.m.m.m.m.m.m.m.m.v.M.m.m.m.c.@.| | *.A.x.% X                     ",
"                      b ..g ' k.k.u.u.u.u.u.u.u.u.i.i.i.i.u.i.a.=.Z b i v b                         ",
"                      X : H 3.m.c. .| | | | | | | | |  .| | X. .Z z o + 1 1                         ",
"                            9XG.v j u i i i i i i i p i i u u u % < . J uXuX                        ",
"                              w.# , o O . . . O . . . . . O @ * @ , . J yXyX                        ",
"                          F F n B 5.<.w 4 X 5 d 5 X X o 4 f 2.5.M m 2.3.q.q.                        ",
"                          p s C 1.4.<.r 9 # 9 U 9 $ # & 6 f 2.4.V V 9.8.[ g                         ",
"                      9.8.l C K.9.- 3 t w 9 U R Y Q t e t t & j 2.9.K.P.P.D.V n                     ",
"                      7.0.,.4.R.K.% 3 ^ r r Y W E W Y r U r $ & <.7.P.Y.U.H.V n                     ",
"                  4.5.4.9.J.Y.1XW.f 8 _ R R R E E R E E R R r f k -.P.U.R.r.x 5                     ",
"                  F.P.D.D.H.I.W.L.^ 8 _ R W E R R R R R R R Y f c B 0.H.r.F.@X%X                    ",
"              9.D.!.<XY.H.D.8.V c / R E R R R R E R R R E R E E r 9 y y c @X                        ",
"              2.8.E.1X!.I.4.-.j d R R R R W W R W R W R R R E _ 8 D =X=Xk @X                        ",
"              l C E.1X1X,X1.j = 5 _ W _ E _ _ E E E _ E E E _ ` 7 $X                                ",
"                N F.I.I.F.1.a + 4 Y Q Q Q Q Y T E E E Q E R E ` 6                                   ",
"                  m M x k         q T P P P L q L P P P P P K q                                     ",
"                    m m         _./.).(.(.(.G H G (.(.(.(.(././._.                                  ",
"                              oXOX X X X X X|._.|..X.X.X X X.XOXoX`.                                ",
"                              ^._.|..X{.{.{.|.[.].|.}..X.X}.{.}.|._.                                ",
"                              '.oX X.X[.{.XX{.}.]._.].}.}.}.}.}.].`.                                ",
"                                5X-X5XrXrXrX7X5X*X_.&X4X7XrXrXeX;X;X                                ",
"                                  qX8XyXyXyXiX6X&X_.-X9XuXyXyXyX6X8X                                ",
"                                    8X#X+X+X#X      G.%X>X2X3X3X>X>X                                ",
"                                    8XS . 1         :.6.r.J.~.~.T.J.                                ",
"                                                    P.T.!.<X1X1Xr.%.                                ",
"                                                    P.U.,X,X,XE.>X%X                                ",
"                                                    N D D D u J 0X                                  ",
"                                                    ; ; ; > . S                                     ",
"                                                    o * 2 z * =                                     ",
"                                                      O < 2 = .                                     ",
"                                                                                                    "
};
