/* XPM */
static char *luffy_down1671548107[] = {
/* columns rows colors chars-per-pixel */
"50 50 234 2 ",
"   c None",
".  c #010101",
"X  c #0A0503",
"o  c #0A0707",
"O  c #130A04",
"+  c #1C1309",
"@  c #000011",
"#  c #0C1314",
"$  c #230601",
"%  c #251904",
"&  c #2B1D05",
"*  c #241608",
"=  c #381E02",
"-  c #231911",
";  c #291E15",
":  c #390010",
">  c #372302",
",  c #37271B",
"<  c #2C2715",
"1  c #000C21",
"2  c #0E2737",
"3  c #332A24",
"4  c #2D2E2D",
"5  c #590000",
"6  c #461813",
"7  c #6B0000",
"8  c #630000",
"9  c #760001",
"0  c #770105",
"q  c #751917",
"w  c #6F0D10",
"e  c #532D00",
"r  c #4B3508",
"t  c #573B09",
"y  c #43251A",
"u  c #552C13",
"i  c #79241A",
"p  c #6C340B",
"a  c #740C21",
"s  c #4A3727",
"d  c #553525",
"f  c #583B29",
"g  c #53352A",
"h  c #783928",
"j  c #732C21",
"k  c #5A400B",
"l  c #62460B",
"z  c #654709",
"x  c #764A05",
"c  c #694C11",
"v  c #5A422E",
"b  c #5C4533",
"n  c #4F453B",
"m  c #61432A",
"M  c #624A35",
"N  c #694934",
"B  c #774A3A",
"V  c #78533A",
"C  c #6C533C",
"Z  c #303E41",
"A  c #723D58",
"S  c #651E4A",
"D  c #354346",
"F  c #525453",
"G  c #7E5B41",
"H  c #685252",
"J  c #6D6359",
"K  c #776C66",
"L  c #647178",
"P  c #5B6467",
"I  c #830000",
"U  c #960000",
"Y  c #8B0016",
"T  c #920017",
"R  c #891A19",
"E  c #931516",
"W  c #951A17",
"Q  c #941C1B",
"!  c #991B19",
"~  c #991718",
"^  c #991800",
"/  c #872817",
"(  c #96231B",
")  c #97271A",
"_  c #9B3718",
"`  c #9D2700",
"'  c #932522",
"]  c #833928",
"[  c #912E24",
"{  c #974C00",
"}  c #865901",
"|  c #9C5E04",
" . c #8C461B",
".. c #8B4811",
"X. c #A2441A",
"o. c #A64B1A",
"O. c #A35813",
"+. c #9A6703",
"@. c #8D6511",
"#. c #A26D02",
"$. c #A46608",
"%. c #A57203",
"&. c #A97506",
"*. c #AA750A",
"=. c #AE790A",
"-. c #A87609",
";. c #B27C0C",
":. c #B77C00",
">. c #B36B0F",
",. c #84402E",
"<. c #835B3D",
"1. c #8A5939",
"2. c #8E5638",
"3. c #87603A",
"4. c #AA6F31",
"5. c #8C3D56",
"6. c #873C58",
"7. c #862F56",
"8. c #875B44",
"9. c #955F43",
"0. c #914656",
"q. c #896349",
"w. c #976648",
"e. c #976F52",
"r. c #A36C4C",
"t. c #A96D4C",
"y. c #AA724E",
"u. c #A77353",
"i. c #B37A56",
"p. c #B67C58",
"a. c #B37349",
"s. c #927968",
"d. c #C27D57",
"f. c #BB830E",
"g. c #BC8614",
"h. c #BE892A",
"j. c #C2860D",
"k. c #CC951E",
"l. c #D49B1E",
"z. c #D99E1D",
"x. c #CF930A",
"c. c #DBA110",
"v. c #C98D21",
"b. c #D39A21",
"n. c #DA9E21",
"m. c #D39724",
"M. c #CD9320",
"N. c #DCA222",
"B. c #DBA23C",
"V. c #E1A524",
"C. c #E7AA25",
"Z. c #BB835E",
"A. c #AC8357",
"S. c #87807C",
"D. c #BB8464",
"F. c #B79473",
"G. c #BA966F",
"H. c #CB865C",
"J. c #C68358",
"K. c #CF9856",
"L. c #CE8B63",
"P. c #C58963",
"I. c #D18E66",
"U. c #DA966A",
"Y. c #D79569",
"T. c #CC9D74",
"R. c #C89B74",
"E. c #D89D74",
"W. c #CD9167",
"Q. c #E29A6E",
"!. c #D5A57A",
"~. c #DBA679",
"^. c #DDAB7D",
"/. c #D5A275",
"(. c #DCA46E",
"). c #E1AD7E",
"_. c #E5A776",
"`. c #EEB27B",
"'. c #E6AC47",
"]. c #003380",
"[. c #3A62A5",
"{. c #3662A6",
"}. c #355393",
"|. c #5D6A97",
" X c #4F619B",
".X c #606E9B",
"XX c #62719E",
"oX c #4A6CAC",
"OX c #5C74A9",
"+X c #5A7BB4",
"@X c #5175B0",
"#X c #6176AC",
"$X c #6678AA",
"%X c #40548F",
"&X c #7F839E",
"*X c #798AAE",
"=X c #8A8989",
"-X c #9B9190",
";X c #A89794",
":X c #AA8D87",
">X c #8395B8",
",X c #8B94B0",
"<X c #A9A9A5",
"1X c #B5B3AA",
"2X c #B9B6AF",
"3X c #C09E80",
"4X c #C6A797",
"5X c #D6AB86",
"6X c #E3AE81",
"7X c #E6B183",
"8X c #EBB585",
"9X c #EEB989",
"0X c #EDB789",
"qX c #F3BB8B",
"wX c #E8BC98",
"eX c #F4BE90",
"rX c #CCBBAC",
"tX c #BCC2BE",
"yX c #C1C3BD",
"uX c #F1C4A0",
"iX c #919FC1",
"pX c #95A2C4",
"aX c #ABB1C7",
"sX c #BBC3C1",
"dX c #D3D5CC",
"fX c #D8DCD9",
"gX c #CECBC2",
"hX c #E2E1DD",
"jX c #E9E9E8",
"kX c #F4EBE6",
"lX c #FFF3EC",
"zX c #FDFDFD",
"xX c #F8F7F6",
"cX c #EEF2F4",
/* pixels */
"                                    +.;.N.n.%.=.n.V.V.l.-.+.                                        ",
"                                    &.f.V.N.=.f.V.V.V.n.f.&.                                        ",
"                                +.f.l.N.N.V.n.N.N.V.V.N.z.k.&.+.                                    ",
"                                -.j.N.N.n.n.N.N.n.n.n.N.V.z.j.=.                                    ",
"                            %.f.z.z.f.-.o.X.o.X.o.o._ 4.V.V.N.l.=.#.                                ",
"                            %.f.N.b.-.| ) T E E E ( T o.m.N.N.l.:.4.                                ",
"                            w / o.o.( _ +.#.$.+.$.$.-.$.X._ X._ 7 :XzXzX                            ",
"                            h / Y Y ( X.=.=.=.=.=.&.%.$.) ! [ [ 5 :XzXxX                            ",
"                    #.%.#.;.n.M.6 l b.N.b.N.N.N.V.k.r c z.n.V.v.= M F.G.{ 4XzXzX                    ",
"                    ;.j.&.f.z.k.+ r b.N.b.b.l.b.N.g.X k b.N.N.g.< > | #.$.5XzXzX                    ",
"                +.*.z.n.f.+.c t % % k z k z l l c k + > l l l t . k 4.h.N.K.A.rXzXzX                ",
"                =.x.n.l.=.} O . O . . . @ @ . . . . . . . . . . . t @.=.N.m.{ 3XzXzX                ",
"            #.;.b.b.f.-.k > & % . . & % . . % & & * . o & & & % X % = x =.g.B.K.G.F.                ",
"            %.j.N.N.-.} & . O o . X . - b v O X ; ; < ; X . X X X . . r +.f.V.c.:.|                 ",
"            #.f.N.b.z . & O . . . + . M ~.T.s . . . . . . . . . X o . z #.g.z.V.'.B.                ",
"            #.=.V.b.l . & X . . . - . C 8X^.s . M M b g ; # o . . O # k } f.N.C.C.C.                ",
"                C.C.-.} r . o . o + . m 8X).. s !.).7XR.% . + . . . . . . @.C.C.                    ",
"                V.n.f.-.r @ - + + 3 D J ~.E.v q.0XqX`.T.H Z - . + , b v . x N.N.                    ",
"                    C.z.& . . . . D 2X1XF V !.).0X!.f P 2X<X4 . . C ).R.; . c t                     ",
"                    N.b.C g M M e K dXyX1 l 7XqX9X!.. F dXgX3 O s e.qX!.3 . @ .                     ",
"                    > V ).9X6X6X(.wXzXjX2 e 7X0X9X!.. L zXjX2 t 6X7XqX/.X .                         ",
"                    . b 7XqX7X8X`.uXxXhXJ 3.7X8X0X5Xp S.cXhXb <.7X6X).R.K P                         ",
"                            i.P.8XeXwXwX_.).8X0X0X7X8XT.K s.7X~.Z.u.> =XxXzX                        ",
"                            w.i.~.)._.`.9X9X`.6X).7XqX(.p 1.7X~.r.8.. =XxXzX                        ",
"                        N B b V i.P.U._.qX8XE.U.U._.qX8XU.L.D.u.N V r.e.s.J                         ",
"                        N V V 8.8.r.d.I./.E.L.L.H.L.~.~.L.d.w.8.N <.p.a.p p                         ",
"                    i.r.g N J.J.s y h ,.] 9.u.p.A.y.2.] ] j , m t.p.L.I.U.P.N f                     ",
"                    i.p.<.w.U.Y.y X 0 9 7 q 4.w.t.2.9 7 9 8 X d w.i.L.Y.Q.H.8.H                     ",
"                r.t.r.i.P.Y.0X).] 7 ' ) ' ' ] i a a ) ) ) ( q j m w.Y.U.U.J.5 .                     ",
"                Z.W.p.p.L.I._.T.] I ) ! W W 0 q ....( E ! W q i d V P.W.H.D.;X;X                    ",
"            y.Z.).`.Y.H.p.y.G B ( E W ~ W ( w o.n.l.) T ( W W R i q 8 p 8 1XjX                      ",
"            w.Z.8X8XE.Y.y.8.g u Q ! W W ~ R w ..m.v._ Y ( ! ! Q 0 h ;X=X$ <X                        ",
"            d w.7XqXqX^.q.f , 6 Q ! Q ~ ! Q q q q q ! ! ! Q ! ' 7 ;XkXxX                            ",
"            y 8.T.^.^.T.G y # : R Q Q ' Q R q i  .] ( ! Q Q ' ' 5 ;X                                ",
"                V V 8.V         9 I U U U ^ 0 ..c.x.` U ^ U I 0                                     ",
"                g f f d         A A 5.5.5.5.S q.K.K.0.7.5.5.A H                                     ",
"                            .XXXOX#X#X#XOXOX|.|.$X$X@XOXOX#X$X#XXX.X                                ",
"                            .X#X+X+X+X+X+X+X|.OX@X@X@X*X+X+X+X+X$X|.                                ",
"                            2 {.@XoX{.{.{.{.oXoX|.|.oXoX[.[.{.[. X%X                                ",
"                            aXaX>X>X>XpXpXpX>X*X|..X*X>XpXpXpXpX,X,X                                ",
"                            xXcXsXgXxXzXzXxXhXsX$X*XgXfXxXzXzXcXsXhX                                ",
"                              xXzXhXjXjXcXhXdX2X.X&X1XgXkXlXlXkXrXgX                                ",
"                                  fXF . 4 2         y.p.I.5X0X7X_.E.                                ",
"                                    1X=X<X=X        a.H.H.U.`._.Y.H.                                ",
"                                                    Y._.qXeXeX).4.o.                                ",
"                                                    L.U.T./.~.5X4X4X                                ",
"                                                    p.y.3 f 4.4XzXzX                                ",
"                                                    w.1.. $ ..:XzXzX                                ",
"                                                    ; - - - * 3                                     ",
"                                                    . . . . . .                                     "
};
