/* XPM */
static char *_5f9fe6ab211e311671369658[] = {
/* columns rows colors chars-per-pixel */
"50 50 106 2 ",
"   c None",
".  c #060104",
"X  c #080701",
"o  c #070904",
"O  c #0A0D03",
"+  c #100F01",
"@  c #071304",
"#  c #051D02",
"$  c #121202",
"%  c #191703",
"&  c #1D1B04",
"*  c #201E05",
"=  c #072404",
"-  c #082505",
";  c #002F04",
":  c #092C04",
">  c #003404",
",  c #0A3205",
"<  c #013D05",
"1  c #0A3C05",
"2  c #1C3505",
"3  c #133D05",
"4  c #1D3F08",
"5  c #232404",
"6  c #2A2606",
"7  c #2E2A06",
"8  c #31230F",
"9  c #332C08",
"0  c #2B3E0B",
"q  c #342411",
"w  c #382512",
"e  c #3D2913",
"r  c #432D15",
"t  c #433210",
"y  c #4B3216",
"u  c #523719",
"i  c #543819",
"p  c #5E3E1C",
"a  c #004104",
"s  c #0B4305",
"d  c #0D4A06",
"f  c #144206",
"g  c #114B06",
"h  c #0E5306",
"j  c #005C04",
"k  c #0F5B07",
"l  c #125406",
"z  c #105E07",
"x  c #115E08",
"c  c #24520A",
"v  c #006505",
"b  c #0E6207",
"n  c #006806",
"m  c #086F07",
"M  c #106407",
"N  c #116A07",
"B  c #126608",
"V  c #1F630B",
"C  c #126C08",
"Z  c #137507",
"A  c #137308",
"S  c #19730A",
"D  c #147A09",
"F  c #1A7A0A",
"G  c #30620E",
"H  c #464612",
"J  c #5F401D",
"K  c #455612",
"L  c #63421D",
"P  c #6A461F",
"I  c #6B481F",
"U  c #416509",
"Y  c #4D710B",
"T  c #6D4920",
"R  c #724C21",
"E  c #775023",
"W  c #7B5224",
"Q  c #815625",
"!  c #855927",
"~  c #8A5C29",
"^  c #8F6429",
"/  c #94632B",
"(  c #99672D",
")  c #9C692E",
"_  c #A06B2F",
"`  c #A77031",
"'  c #AC7333",
"]  c #B17734",
"[  c #B57835",
"{  c #168409",
"}  c #178A0A",
"|  c #188D0A",
" . c #19940B",
".. c #1B9B0B",
"X. c #1CA30C",
"o. c #1DAA0C",
"O. c #1FB50E",
"+. c #1FB90E",
"@. c #20BE0E",
"#. c #22C30F",
"$. c #22C90F",
"%. c #23CF10",
"&. c #25D310",
"*. c #26DD11",
"=. c #27E412",
"-. c #29EC13",
/* pixels */
"                                                                                                    ",
"                                                                                                    ",
"                                                                                                    ",
"                                                                                                    ",
"                          1 s , - , d                   d , : s s                                   ",
"                            - o.&.@.1 . : d           1 . X.@., d                                   ",
"                            s N +.=.#.%.... d       h | } | D 1                                     ",
"                              . h  .&.X.} { 1     , h ..o.D .                                       ",
"                                , , D Z  . .1   1 x { ..D x s                                       ",
"                                    : B  .| 1 1 : N | C d :                                         ",
"                                      @ C { 1 B d z D , s 1   s , # , s # @ 1                       ",
"                  d : o @ = = : , ,   1 x B s D k h Z d , z N d C { C s { { B o . d                 ",
"                d : C { { A Z N B b d 1 k B 1 x g l C s h D Z 1 { ..{ N  .X.| {  .,                 ",
"              : : Z X...{ Z A { } D h 1 s h 1 1 > a l 1 N D C B { { | .. .X.|  .#.X.D               ",
"            o N  .} } B . : : B A M N x h h h < U U < h x A Z B } D Z { {  .d D *.-....             ",
"           .B N o.1 O       s 1 : s x b B C B < Y Y < B B A C k Z l : : # , @ D +.+.Z , d           ",
"        s *.o.. :                 s 1 , d M B l < > s B N A D N s 1           , . . : d 1           ",
"        1 +. ..                         d h B C l , s k l B x , 1                                   ",
"        s : ,                       h d h N B A M h h d h h h h k d                                 ",
"        s s                   , d z D k z C z B S S Z N C D D D | C k k ,                           ",
"        s                   1 d C { C Z D C a z j v F B M C F C D {  ...C N h -                     ",
"                          N l C { Z s N C l 3 < H K v m b m n < 1 N | X.O.#.X.h ,                   ",
"                    { A Z O.X.N x D s 1 0 6 6 # ^ ^ < c V c 0 f f : A | s ..&.$.M N                 ",
"                  d O.&.o.d  .Z : d   & & & 6 7 7 y T T T T T y 7 2 s f s = o.*.%.*. ..             ",
"                  B @.&.X.1 s         * $ + 6 6 5 t L p ) ~ q 9 6 $ & 7   1 d d b &. ..             ",
"                { %.*.o.,             & * % X 6 5 y I L W P e 6 O $ & &         1 h d 1             ",
"                } *. .:                 & & % 9     ' L _ ~ 8 7 % & &                               ",
"                  N d :                             I T W T r                                       ",
"                  :                                   ] ] ~ e                                       ",
"                                                      R W T i y                                     ",
"                                                        ) ] / y                                     ",
"                                                      w R ! R y                                     ",
"                                                      ' ` ' ) y                                     ",
"                                                      ~ / / W y                                     ",
"                                                    [ _ L w e                                       ",
"                                                    / ~ T i i                                       ",
"                                                    ( ( ` ~ w                                       ",
"                                                    _ ( _ W r                                       ",
"                                                  ( / / i q                                         ",
"                                                ! _ / ) R                                           ",
"                                                p T ! w y                                           ",
"                                              ~ T R / i                                             ",
"                                              T T T L y r                                           ",
"                                              R T W ! e r                                           ",
"                                              T p i i L                                             ",
"                                            E R R R R / L w                                         ",
"                                          J y y y y y r r r r                                       ",
"                                                                                                    ",
"                                                                                                    ",
"                                                                                                    "
};
